<svg xmlns="http://www.w3.org/2000/svg" viewBox="0 0 760 190" font-family="Segoe UI,system-ui,sans-serif">
<rect width="760" height="190" fill="#ffffff"/>
<text x="20" y="26" font-size="15" font-weight="700" fill="#0f172a">Componer la vista en color natural</text>
<g opacity=".85"><rect x="60" y="48" width="130" height="86" rx="4" fill="#ef4444" opacity=".55" stroke="#ef4444"/><text x="125" y="95" text-anchor="middle" font-size="11" font-weight="700" fill="#fff">banda rojo</text><animateTransform attributeName="transform" type="translate" values="0,0;220,0;0,0" keyTimes="0;.5;1" dur="5s" repeatCount="indefinite"/></g><g opacity=".85"><rect x="60" y="48" width="130" height="86" rx="4" fill="#22c55e" opacity=".55" stroke="#22c55e"/><text x="125" y="95" text-anchor="middle" font-size="11" font-weight="700" fill="#fff">banda verde</text><animateTransform attributeName="transform" type="translate" values="36,-14;220,0;36,-14" keyTimes="0;.5;1" dur="5s" repeatCount="indefinite"/></g><g opacity=".85"><rect x="60" y="48" width="130" height="86" rx="4" fill="#3b82f6" opacity=".55" stroke="#3b82f6"/><text x="125" y="95" text-anchor="middle" font-size="11" font-weight="700" fill="#fff">banda azul</text><animateTransform attributeName="transform" type="translate" values="72,-28;220,0;72,-28" keyTimes="0;.5;1" dur="5s" repeatCount="indefinite"/></g><rect x="470.0" y="48.0" width="17.2" height="17.2" fill="#84cc16" stroke="#fff" stroke-opacity=".25" stroke-width=".5"/><rect x="487.2" y="48.0" width="17.2" height="17.2" fill="#4d7c0f" stroke="#fff" stroke-opacity=".25" stroke-width=".5"/><rect x="504.4" y="48.0" width="17.2" height="17.2" fill="#84cc16" stroke="#fff" stroke-opacity=".25" stroke-width=".5"/><rect x="521.6" y="48.0" width="17.2" height="17.2" fill="#4d7c0f" stroke="#fff" stroke-opacity=".25" stroke-width=".5"/><rect x="538.8" y="48.0" width="17.2" height="17.2" fill="#84cc16" stroke="#fff" stroke-opacity=".25" stroke-width=".5"/><rect x="556.0" y="48.0" width="17.2" height="17.2" fill="#4d7c0f" stroke="#fff" stroke-opacity=".25" stroke-width=".5"/><rect x="573.2" y="48.0" width="17.2" height="17.2" fill="#94a3b8" stroke="#fff" stroke-opacity=".25" stroke-width=".5"/><rect x="590.4" y="48.0" width="17.2" height="17.2" fill="#94a3b8" stroke="#fff" stroke-opacity=".25" stroke-width=".5"/><rect x="607.6" y="48.0" width="17.2" height="17.2" fill="#94a3b8" stroke="#fff" stroke-opacity=".25" stroke-width=".5"/><rect x="624.8" y="48.0" width="17.2" height="17.2" fill="#94a3b8" stroke="#fff" stroke-opacity=".25" stroke-width=".5"/><rect x="470.0" y="65.2" width="17.2" height="17.2" fill="#65a30d" stroke="#fff" stroke-opacity=".25" stroke-width=".5"/><rect x="487.2" y="65.2" width="17.2" height="17.2" fill="#a3e635" stroke="#fff" stroke-opacity=".25" stroke-width=".5"/><rect x="504.4" y="65.2" width="17.2" height="17.2" fill="#65a30d" stroke="#fff" stroke-opacity=".25" stroke-width=".5"/><rect x="521.6" y="65.2" width="17.2" height="17.2" fill="#a3e635" stroke="#fff" stroke-opacity=".25" stroke-width=".5"/><rect x="538.8" y="65.2" width="17.2" height="17.2" fill="#65a30d" stroke="#fff" stroke-opacity=".25" stroke-width=".5"/><rect x="556.0" y="65.2" width="17.2" height="17.2" fill="#a3e635" stroke="#fff" stroke-opacity=".25" stroke-width=".5"/><rect x="573.2" y="65.2" width="17.2" height="17.2" fill="#cbd5e1" stroke="#fff" stroke-opacity=".25" stroke-width=".5"/><rect x="590.4" y="65.2" width="17.2" height="17.2" fill="#cbd5e1" stroke="#fff" stroke-opacity=".25" stroke-width=".5"/><rect x="607.6" y="65.2" width="17.2" height="17.2" fill="#cbd5e1" stroke="#fff" stroke-opacity=".25" stroke-width=".5"/><rect x="624.8" y="65.2" width="17.2" height="17.2" fill="#cbd5e1" stroke="#fff" stroke-opacity=".25" stroke-width=".5"/><rect x="470.0" y="82.4" width="17.2" height="17.2" fill="#4d7c0f" stroke="#fff" stroke-opacity=".25" stroke-width=".5"/><rect x="487.2" y="82.4" width="17.2" height="17.2" fill="#84cc16" stroke="#fff" stroke-opacity=".25" stroke-width=".5"/><rect x="504.4" y="82.4" width="17.2" height="17.2" fill="#4d7c0f" stroke="#fff" stroke-opacity=".25" stroke-width=".5"/><rect x="521.6" y="82.4" width="17.2" height="17.2" fill="#84cc16" stroke="#fff" stroke-opacity=".25" stroke-width=".5"/><rect x="538.8" y="82.4" width="17.2" height="17.2" fill="#0ea5e9" stroke="#fff" stroke-opacity=".25" stroke-width=".5"/><rect x="556.0" y="82.4" width="17.2" height="17.2" fill="#0ea5e9" stroke="#fff" stroke-opacity=".25" stroke-width=".5"/><rect x="573.2" y="82.4" width="17.2" height="17.2" fill="#64748b" stroke="#fff" stroke-opacity=".25" stroke-width=".5"/><rect x="590.4" y="82.4" width="17.2" height="17.2" fill="#64748b" stroke="#fff" stroke-opacity=".25" stroke-width=".5"/><rect x="607.6" y="82.4" width="17.2" height="17.2" fill="#64748b" stroke="#fff" stroke-opacity=".25" stroke-width=".5"/><rect x="624.8" y="82.4" width="17.2" height="17.2" fill="#64748b" stroke="#fff" stroke-opacity=".25" stroke-width=".5"/><rect x="470.0" y="99.6" width="17.2" height="17.2" fill="#a3e635" stroke="#fff" stroke-opacity=".25" stroke-width=".5"/><rect x="487.2" y="99.6" width="17.2" height="17.2" fill="#65a30d" stroke="#fff" stroke-opacity=".25" stroke-width=".5"/><rect x="504.4" y="99.6" width="17.2" height="17.2" fill="#a3e635" stroke="#fff" stroke-opacity=".25" stroke-width=".5"/><rect x="521.6" y="99.6" width="17.2" height="17.2" fill="#65a30d" stroke="#fff" stroke-opacity=".25" stroke-width=".5"/><rect x="538.8" y="99.6" width="17.2" height="17.2" fill="#0ea5e9" stroke="#fff" stroke-opacity=".25" stroke-width=".5"/><rect x="556.0" y="99.6" width="17.2" height="17.2" fill="#0ea5e9" stroke="#fff" stroke-opacity=".25" stroke-width=".5"/><rect x="573.2" y="99.6" width="17.2" height="17.2" fill="#94a3b8" stroke="#fff" stroke-opacity=".25" stroke-width=".5"/><rect x="590.4" y="99.6" width="17.2" height="17.2" fill="#94a3b8" stroke="#fff" stroke-opacity=".25" stroke-width=".5"/><rect x="607.6" y="99.6" width="17.2" height="17.2" fill="#94a3b8" stroke="#fff" stroke-opacity=".25" stroke-width=".5"/><rect x="624.8" y="99.6" width="17.2" height="17.2" fill="#94a3b8" stroke="#fff" stroke-opacity=".25" stroke-width=".5"/><rect x="470.0" y="116.8" width="17.2" height="17.2" fill="#84cc16" stroke="#fff" stroke-opacity=".25" stroke-width=".5"/><rect x="487.2" y="116.8" width="17.2" height="17.2" fill="#4d7c0f" stroke="#fff" stroke-opacity=".25" stroke-width=".5"/><rect x="504.4" y="116.8" width="17.2" height="17.2" fill="#84cc16" stroke="#fff" stroke-opacity=".25" stroke-width=".5"/><rect x="521.6" y="116.8" width="17.2" height="17.2" fill="#4d7c0f" stroke="#fff" stroke-opacity=".25" stroke-width=".5"/><rect x="538.8" y="116.8" width="17.2" height="17.2" fill="#84cc16" stroke="#fff" stroke-opacity=".25" stroke-width=".5"/><rect x="556.0" y="116.8" width="17.2" height="17.2" fill="#4d7c0f" stroke="#fff" stroke-opacity=".25" stroke-width=".5"/><rect x="573.2" y="116.8" width="17.2" height="17.2" fill="#cbd5e1" stroke="#fff" stroke-opacity=".25" stroke-width=".5"/><rect x="590.4" y="116.8" width="17.2" height="17.2" fill="#cbd5e1" stroke="#fff" stroke-opacity=".25" stroke-width=".5"/><rect x="607.6" y="116.8" width="17.2" height="17.2" fill="#cbd5e1" stroke="#fff" stroke-opacity=".25" stroke-width=".5"/><rect x="624.8" y="116.8" width="17.2" height="17.2" fill="#cbd5e1" stroke="#fff" stroke-opacity=".25" stroke-width=".5"/><text x="556" y="152" text-anchor="middle" font-size="11" fill="#475569">como la ven tus ojos 👀</text><path d="M404,91 h44" stroke="#0ea5e9" stroke-width="4"/><path d="M448,91 l-9,-6 v12 Z" fill="#0ea5e9"/>
<text x="20" y="178" font-size="12.5" fill="#475569">Apila tres bandas (rojo + verde + azul) y estira el contraste: la imagen se ve como la vería un ojo humano.</text>
</svg>
